<?xml version="1.0" standalone="no"?>
<!DOCTYPE svg PUBLIC "-//W3C//DTD SVG 20010904//EN"
 "http://www.w3.org/TR/2001/REC-SVG-20010904/DTD/svg10.dtd">
<svg version="1.0" xmlns="http://www.w3.org/2000/svg"
 width="512.000000pt" height="512.000000pt" viewBox="0 0 512.000000 512.000000"
 preserveAspectRatio="xMidYMid meet">

<g transform="translate(0.000000,512.000000) scale(0.100000,-0.100000)"
fill="#000000" stroke="none">
<path d="M1102 4269 c-295 -38 -584 -139 -791 -276 -177 -117 -323 -300 -307
-384 8 -45 43 -78 89 -86 50 -8 78 13 131 95 105 165 327 304 598 377 203 55
311 69 503 69 339 0 526 -50 1195 -319 615 -247 798 -300 1119 -324 379 -29
827 86 1148 294 159 104 323 296 323 379 0 63 -47 106 -113 106 -41 -1 -69
-23 -103 -85 -57 -103 -138 -180 -279 -263 -132 -78 -358 -158 -563 -199 -137
-28 -461 -25 -610 5 -236 48 -404 105 -897 307 -444 181 -721 266 -978 300
-124 16 -358 18 -465 4z"/>
<path d="M1060 2984 c-384 -58 -712 -204 -915 -409 -99 -99 -152 -191 -141
-246 9 -52 48 -84 101 -84 51 0 72 17 121 96 67 112 225 233 394 304 262 111
611 165 870 136 292 -34 497 -98 1083 -337 450 -184 669 -252 927 -290 161
-23 461 -16 615 15 249 51 535 168 708 292 151 107 287 275 287 354 0 60 -45
104 -105 105 -53 0 -75 -16 -110 -85 -81 -156 -285 -293 -580 -391 -181 -59
-321 -85 -497 -91 -327 -12 -576 49 -1147 282 -580 236 -789 304 -1076 346
-155 23 -393 24 -535 3z"/>
<path d="M1057 1704 c-388 -60 -709 -204 -912 -409 -52 -52 -93 -104 -115
-147 -30 -59 -33 -70 -25 -104 13 -51 65 -88 113 -80 44 7 55 17 106 95 50 77
139 164 221 216 272 175 735 268 1090 221 260 -34 481 -105 1005 -318 608
-248 822 -306 1168 -315 207 -6 316 4 491 47 220 54 433 144 596 251 156 103
315 292 315 374 0 60 -45 104 -105 105 -54 0 -79 -20 -112 -87 -87 -178 -368
-343 -735 -433 -165 -40 -297 -54 -463 -47 -301 12 -517 73 -1085 307 -514
211 -748 285 -1035 325 -125 18 -400 18 -518 -1z"/>
</g>
</svg>
